<svg width="436" height="348" viewBox="0 0 436 348" fill="none" xmlns="http://www.w3.org/2000/svg">
<path d="M73.628 173.055L46.2772 183.889C25.6164 192.074 21.4609 219.502 38.7701 233.439L180.177 347.299L343.974 283.86L235.308 197.174C189.632 160.738 127.949 151.536 73.628 173.055Z" fill="#7BB314" fill-opacity="0.22"/>
<path d="M281.324 151.026L278.724 153.886L256.106 132.306L241.546 130.226L248.566 122.687C247.265 120.347 244.509 113.951 243.885 107.087C243.105 98.5069 243.625 93.307 246.745 85.5072C249.865 77.7073 254.545 72.2474 283.924 48.8478C313.304 25.4482 324.224 20.7682 342.943 8.54845C361.663 -3.67134 374.403 1.00858 378.563 3.86853C382.723 6.72848 389.222 13.4884 384.283 33.508C379.343 53.5277 365.563 76.4073 357.243 92.527C348.923 108.647 334.883 129.706 328.383 138.286C321.884 146.866 316.164 152.326 302.124 153.626C290.892 154.666 283.578 152.326 281.324 151.026Z" fill="#AAE738"/>
<path d="M284.185 138.806L275.865 147.906L254.805 131.266L248.045 132.566C251.338 129.186 258.549 121.595 261.045 118.267C253.505 105.007 255.61 95.647 256.885 89.1471C259.485 75.8873 278.985 62.8876 281.585 60.5476C284.185 58.2076 293.025 50.9278 301.344 44.6879C309.664 38.448 335.144 20.5084 343.724 16.6084C352.304 12.7085 367.123 4.38864 373.883 8.80856C380.643 13.2285 380.123 18.1684 375.443 37.1481C371.699 52.3318 359.323 75.0208 353.603 84.4673C348.317 93.3071 335.092 114.783 324.484 129.967C313.876 145.15 293.198 142.186 284.185 138.806Z" fill="#252525"/>
<mask id="mask0_257_7717" style="mask-type:alpha" maskUnits="userSpaceOnUse" x="248" y="7" width="132" height="141">
<path d="M284.445 138.767L276.126 147.867L262.216 140.197L257.146 131.526L248.306 132.527C251.599 129.147 258.81 121.555 261.306 118.227C253.766 104.967 255.871 95.6073 257.146 89.1074C259.746 75.8477 279.246 62.8479 281.845 60.5079C284.445 58.168 293.285 50.8881 301.605 44.6482C309.925 38.4083 335.405 20.4687 343.984 16.5688C352.564 12.6688 367.384 4.34896 374.144 8.76889C380.904 13.1888 380.384 18.1287 375.704 37.1084C371.96 52.2922 359.584 74.9811 353.864 84.4276C348.578 93.2675 335.353 114.743 324.745 129.927C314.137 145.111 293.459 142.147 284.445 138.767Z" fill="#252525"/>
</mask>
<g mask="url(#mask0_257_7717)">
<path d="M336.184 57.1282C355.112 72.312 354.124 87.8944 351.264 93.7876L322.924 142.147L301.864 156.967C296.924 158.613 286.681 161.906 285.225 161.906C283.405 161.906 280.285 151.286 276.905 149.986C274.201 148.946 259.745 134.127 249.605 127.107C250.992 111.507 243.157 93.7876 243.365 93.7876C243.625 93.7876 282.625 47.7684 292.765 45.6884C302.904 43.6085 312.524 38.1486 336.184 57.1282Z" fill="#9B8ADD"/>
<path d="M330.725 37.9279C334.798 34.8946 339.98 31.168 341.644 30.128C345.024 28.0156 350.744 24.4081 353.084 23.1082" stroke="white" stroke-width="9.3341" stroke-linecap="round"/>
<path d="M313.824 51.4476L321.364 44.9478" stroke="white" stroke-width="9.3341" stroke-linecap="round"/>
<path d="M323.074 73.1583C323.757 74.1166 325.087 74.34 326.046 73.6573C327.004 72.9746 327.227 71.6443 326.545 70.686L322.87 65.5286C322.188 64.5703 320.857 64.3469 319.899 65.0296C318.941 65.7123 318.717 67.0425 319.4 68.0008L323.074 73.1583Z" fill="#BC89D8" stroke="black" stroke-width="0.583381"/>
<path d="M310.404 123.47C311.842 122.774 312.443 121.045 311.748 119.607C311.052 118.17 309.323 117.568 307.885 118.264L299.825 122.164C298.388 122.859 297.786 124.589 298.482 126.026C299.178 127.464 300.907 128.065 302.344 127.37L310.404 123.47Z" fill="#A18FDD" stroke="black" stroke-width="0.583381"/>
</g>
<circle cx="273.005" cy="102.407" r="5.23161" fill="#A18FDD" stroke="black" stroke-width="0.583381"/>
<circle cx="297.965" cy="84.2072" r="14.5281" fill="black" stroke="black" stroke-width="0.583381"/>
<path fill-rule="evenodd" clip-rule="evenodd" d="M310.034 84.8152C310.034 90.1509 307.231 94.8318 303.017 97.4659C308.046 95.2188 311.55 90.1735 311.55 84.3098C311.55 76.3554 305.102 69.9071 297.147 69.9071C296.811 69.9071 296.476 69.9187 296.146 69.9414C299.767 70.1859 303.034 71.724 305.489 74.0974C305.324 74.0774 305.155 74.0672 304.985 74.0672C302.687 74.0672 300.825 75.9296 300.825 78.2271C300.825 80.5246 302.687 82.387 304.985 82.387C306.898 82.387 308.51 81.0952 308.995 79.3362C309.666 81.0322 310.034 82.8807 310.034 84.8152Z" fill="white"/>
<circle cx="304.464" cy="96.947" r="6.01159" fill="#A18FDD" stroke="black" stroke-width="0.583381"/>
<path fill-rule="evenodd" clip-rule="evenodd" d="M238.74 136.469C233.188 135.29 228.561 136.079 226.238 139.105C225.875 139.578 225.445 140.172 224.929 140.884L224.929 140.884L224.929 140.884C224.38 141.641 223.734 142.533 222.968 143.555C222.905 143.631 222.843 143.708 222.783 143.786C218.268 149.669 224.17 161.775 235.964 170.827C246.266 178.734 257.657 181.694 263.383 178.396C263.504 178.391 263.624 178.384 263.742 178.374C263.881 178.209 264.016 178.049 264.147 177.894C264.656 177.512 265.107 177.07 265.494 176.566C265.778 176.195 266.022 175.799 266.224 175.382C267.145 174.242 267.784 173.407 268.479 172.499L268.479 172.499C268.632 172.299 268.787 172.096 268.949 171.885C273.464 166.003 267.562 153.896 255.768 144.844C251.925 141.895 247.931 139.634 244.136 138.129L240.416 142.558C239.492 143.658 237.852 143.801 236.753 142.877C235.653 141.953 235.511 140.313 236.434 139.214L238.74 136.469Z" fill="#252525"/>
<path fill-rule="evenodd" clip-rule="evenodd" d="M231.666 134.906C231.926 133 233.642 128.667 238.426 126.587C243.961 124.18 249.719 126.897 253.226 128.552C253.507 128.685 253.774 128.811 254.026 128.927C257.406 130.486 267.285 135.946 273.785 145.046C280.285 154.146 282.625 162.726 271.445 169.746C271.965 166.366 270.405 160.386 268.065 156.746C265.508 151.753 259.116 145.703 252.22 141.124L256.225 136.638C257.182 135.567 257.089 133.923 256.018 132.967C254.946 132.011 253.303 132.104 252.347 133.175L247.699 138.379C241.311 134.868 235.107 133.059 231.666 134.906Z" fill="#252525"/>
<path d="M238.426 126.587L238.31 126.319L238.426 126.587ZM231.666 134.906L231.377 134.867L231.3 135.434L231.804 135.163L231.666 134.906ZM253.226 128.552L253.101 128.815V128.815L253.226 128.552ZM254.026 128.927L253.903 129.191L254.026 128.927ZM273.785 145.046L273.548 145.216L273.785 145.046ZM271.445 169.746L271.157 169.701L271.06 170.332L271.6 169.993L271.445 169.746ZM268.065 156.746L267.806 156.879L267.812 156.892L267.82 156.904L268.065 156.746ZM252.22 141.124L252.002 140.93L251.778 141.181L252.059 141.367L252.22 141.124ZM256.225 136.638L256.443 136.832L256.225 136.638ZM252.347 133.175L252.564 133.369L252.347 133.175ZM247.699 138.379L247.559 138.635L247.762 138.747L247.917 138.574L247.699 138.379ZM238.31 126.319C233.41 128.449 231.647 132.886 231.377 134.867L231.955 134.946C232.205 133.113 233.874 128.884 238.542 126.854L238.31 126.319ZM253.35 128.288C249.866 126.644 243.984 123.852 238.31 126.319L238.542 126.854C243.938 124.508 249.572 127.15 253.101 128.815L253.35 128.288ZM254.148 128.662C253.898 128.546 253.632 128.421 253.35 128.288L253.101 128.815C253.383 128.948 253.651 129.075 253.903 129.191L254.148 128.662ZM274.023 144.877C267.48 135.718 257.548 130.231 254.148 128.662L253.903 129.191C257.263 130.742 267.09 136.175 273.548 145.216L274.023 144.877ZM271.6 169.993C277.248 166.447 279.537 162.465 279.537 158.176C279.537 153.92 277.28 149.437 274.023 144.877L273.548 145.216C276.791 149.755 278.954 154.112 278.954 158.176C278.954 162.207 276.823 166.025 271.29 169.499L271.6 169.993ZM267.82 156.904C268.969 158.692 269.934 161.066 270.546 163.417C271.159 165.772 271.408 168.068 271.157 169.701L271.734 169.79C272.002 168.044 271.732 165.66 271.11 163.27C270.487 160.875 269.501 158.44 268.311 156.588L267.82 156.904ZM252.059 141.367C258.939 145.936 265.282 151.952 267.806 156.879L268.325 156.613C265.734 151.554 259.292 145.471 252.381 140.881L252.059 141.367ZM256.008 136.444L252.002 140.93L252.438 141.318L256.443 136.832L256.008 136.444ZM255.823 133.184C256.774 134.034 256.857 135.493 256.008 136.444L256.443 136.832C257.507 135.641 257.403 133.813 256.212 132.749L255.823 133.184ZM252.564 133.369C253.413 132.418 254.872 132.335 255.823 133.184L256.212 132.749C255.021 131.686 253.193 131.789 252.129 132.98L252.564 133.369ZM247.917 138.574L252.564 133.369L252.129 132.98L247.482 138.185L247.917 138.574ZM231.804 135.163C233.43 134.29 235.754 134.263 238.51 134.917C241.256 135.569 244.379 136.887 247.559 138.635L247.84 138.124C244.632 136.361 241.458 135.018 238.645 134.35C235.841 133.684 233.343 133.675 231.528 134.649L231.804 135.163Z" fill="black"/>
<ellipse cx="242.541" cy="161.346" rx="9.17478" ry="25.0188" transform="rotate(-49.0814 242.541 161.346)" fill="white"/>
<ellipse cx="209.306" cy="240.724" rx="73.8387" ry="47.5792" fill="#252525"/>
<path d="M268.293 208.225C268.293 215.804 261.941 222.75 251.476 227.818C241.032 232.876 226.582 236.013 210.606 236.013C194.63 236.013 180.18 232.876 169.736 227.818C159.271 222.75 152.919 215.804 152.919 208.225C152.919 200.646 159.271 193.7 169.736 188.632C180.18 183.574 194.63 180.437 210.606 180.437C226.582 180.437 241.032 183.574 251.476 188.632C261.941 193.7 268.293 200.646 268.293 208.225Z" fill="white" stroke="black" stroke-width="0.583381"/>
<path d="M262.573 208.485C262.573 211.436 261.16 214.273 258.552 216.881C255.943 219.49 252.152 221.853 247.445 223.843C238.032 227.824 225.007 230.293 210.606 230.293C196.204 230.293 183.18 227.824 173.767 223.843C169.059 221.853 165.269 219.49 162.66 216.881C160.052 214.273 158.638 211.436 158.638 208.485C158.638 205.534 160.052 202.697 162.66 200.089C165.269 197.48 169.059 195.117 173.767 193.127C183.18 189.146 196.204 186.677 210.606 186.677C225.007 186.677 238.032 189.146 247.445 193.127C252.152 195.117 255.943 197.48 258.552 200.089C261.16 202.697 262.573 205.534 262.573 208.485Z" fill="#252525" stroke="black" stroke-width="0.583381"/>
<mask id="mask1_257_7717" style="mask-type:alpha" maskUnits="userSpaceOnUse" x="158" y="186" width="105" height="45">
<path d="M262.572 208.485C262.572 211.436 261.159 214.273 258.551 216.881C255.942 219.49 252.151 221.853 247.444 223.843C238.031 227.824 225.006 230.293 210.605 230.293C196.203 230.293 183.179 227.824 173.766 223.843C169.059 221.853 165.268 219.49 162.659 216.881C160.051 214.273 158.637 211.436 158.637 208.485C158.637 205.534 160.051 202.697 162.659 200.089C165.268 197.48 169.059 195.117 173.766 193.127C183.179 189.146 196.203 186.677 210.605 186.677C225.006 186.677 238.031 189.146 247.444 193.127C252.151 195.117 255.942 197.48 258.551 200.089C261.159 202.697 262.572 205.534 262.572 208.485Z" fill="#252525" stroke="black" stroke-width="0.583381"/>
</mask>
<g mask="url(#mask1_257_7717)">
<ellipse cx="210.605" cy="218.105" rx="51.2191" ry="21.3196" fill="#AAE738"/>
</g>
<path d="M152.107 209.005V226.425C152.02 229.458 154.654 236.669 165.886 241.245C177.118 245.821 195.526 253.984 236.345 247.225M259.745 238.645C262.691 236.565 268.481 230.689 268.065 223.825C267.649 216.961 267.891 211.085 268.065 209.005M157.826 257.364C160.08 258.838 166.666 262.408 174.986 264.904M180.446 266.464C210.866 273.484 232.705 272.444 262.085 257.364" stroke="white" stroke-width="0.583381"/>
<path fill-rule="evenodd" clip-rule="evenodd" d="M245.122 213.425C245.122 214.814 244.253 216.236 242.449 217.617C240.654 218.992 238.019 220.256 234.712 221.327C228.103 223.468 218.937 224.802 208.786 224.802C198.634 224.802 189.468 223.468 182.859 221.327C179.552 220.256 176.917 218.992 175.122 217.617C173.318 216.236 172.45 214.814 172.45 213.425C172.45 212.037 173.318 210.615 175.122 209.233C176.917 207.858 179.552 206.595 182.859 205.523C189.468 203.383 198.634 202.049 208.786 202.049C218.937 202.049 228.103 203.383 234.712 205.523C238.019 206.595 240.654 207.858 242.449 209.233C244.253 210.615 245.122 212.037 245.122 213.425ZM245.705 213.425C245.705 220.03 229.176 225.385 208.786 225.385C188.396 225.385 171.866 220.03 171.866 213.425C171.866 206.82 188.396 201.465 208.786 201.465C229.176 201.465 245.705 206.82 245.705 213.425ZM230.042 212.905C230.042 213.558 229.602 214.295 228.529 215.062C227.47 215.819 225.9 216.524 223.908 217.127C219.93 218.329 214.399 219.082 208.266 219.082C202.132 219.082 196.602 218.329 192.624 217.127C190.631 216.524 189.061 215.819 188.003 215.062C186.929 214.295 186.49 213.558 186.49 212.905C186.49 212.253 186.929 211.516 188.003 210.749C189.061 209.992 190.631 209.286 192.624 208.684C196.602 207.481 202.132 206.729 208.266 206.729C214.399 206.729 219.93 207.481 223.908 208.684C225.9 209.286 227.47 209.992 228.529 210.749C229.602 211.516 230.042 212.253 230.042 212.905ZM230.625 212.905C230.625 216.639 220.615 219.665 208.266 219.665C195.917 219.665 185.906 216.639 185.906 212.905C185.906 209.172 195.917 206.145 208.266 206.145C220.615 206.145 230.625 209.172 230.625 212.905Z" fill="#499D99"/>
<path d="M386.148 230.521C398.881 223.654 403.939 217.732 411.368 205.562C419.028 217.797 423.817 224.118 436.588 230.521C423.42 237.341 418.504 243.329 411.368 255.481C404.812 243.598 399.718 237.846 386.148 230.521Z" fill="#FEDA03"/>
<path d="M299.688 162.778C303.739 160.57 305.348 158.667 307.711 154.755C310.147 158.688 311.67 160.719 315.733 162.778C311.544 164.969 309.98 166.894 307.711 170.8C305.625 166.98 304.005 165.132 299.688 162.778Z" fill="#FEDA03"/>
<path d="M64.375 51.982C80.5206 43.2544 86.9346 35.7287 96.3545 20.2626C106.068 35.8118 112.14 43.844 128.334 51.982C111.637 60.6489 105.403 68.2584 96.3545 83.7015C88.0406 68.6004 81.5817 61.2902 64.375 51.982Z" fill="#9D90DB"/>
<path d="M199.167 196.785C198.751 203.025 194.66 210.478 192.667 213.425C199.86 212.818 217.159 210.513 228.806 206.145C243.366 200.685 244.926 198.085 250.126 191.065C254.286 185.45 252.553 175.379 251.166 171.046C251.426 170.959 252.102 170.63 252.726 170.006C254.546 168.446 253.766 165.846 252.726 164.546C249.606 159.086 245.446 156.226 241.026 153.366C237.49 151.078 235.046 152.066 234.266 152.846C233.833 153.279 232.81 154.354 232.186 155.186C225.426 152.326 211.647 155.706 206.447 164.026C201.247 172.346 199.687 188.985 199.167 196.785Z" fill="black" stroke="black" stroke-width="0.583381"/>
<path d="M205.142 204.585C204.102 206.873 201.415 209.352 200.202 210.305C198.988 207.037 198.714 204.77 199.682 199.386C199.682 196.872 200.098 189.662 201.762 180.926C203.842 170.006 205.922 167.926 207.482 164.546C209.042 161.166 214.502 156.746 220.741 155.706C225.733 154.874 225.421 159.606 224.125 160.386C222.999 161.339 220.299 162.986 219.442 163.766C213.725 168.966 212.682 174.166 212.422 177.286C212.335 177.373 212.318 177.546 212.942 177.546C214.242 168.446 220.221 163.766 225.421 160.386C230.621 157.006 236.861 157.266 242.321 159.606C247.781 161.946 249.341 167.666 248.821 174.166C248.407 179.341 246.242 182.885 245.196 184.029C246.158 182.984 248.413 180.926 249.861 180.926C251.681 180.926 252.721 183.786 252.201 186.126C251.681 188.466 248.821 192.366 245.701 196.265C242.581 200.165 236.081 203.025 230.361 205.625C224.641 208.225 213.462 210.305 210.082 211.085C207.378 211.709 201.848 212.039 199.422 212.125C200.982 210.825 204.31 208.017 205.142 207.185C206.182 206.145 205.662 204.585 205.142 204.585Z" fill="#FDF3AD" stroke="black" stroke-width="0.583381"/>
<path d="M224.646 181.966C226.465 178.586 228.285 174.946 234.525 171.046" stroke="white" stroke-width="8.16734" stroke-linecap="round"/>
</svg>
