<svg width="288" height="166" viewBox="0 0 288 166" fill="none" xmlns="http://www.w3.org/2000/svg">
<g clip-path="url(#clip0_1415_1114)">
<path d="M298.828 200.4C292.103 201.382 273.061 198.457 250.701 178.903C222.751 154.46 229.83 158.867 214.431 151.942C199.032 145.017 228.37 137.707 239.179 153.42C238.372 155.761 206.221 133.966 215.864 123.692C221.924 118.508 246.129 141.783 245.487 146.069C244.845 150.355 216.836 113.738 228.149 107.868C239.462 101.997 254.577 143.998 252.336 145.288C250.096 146.579 244.374 125.145 256.419 121.994C268.464 118.843 257.99 140.342 263.049 146.579C268.107 152.816 290.68 166.628 304.549 166.628C388.328 166.628 328.665 202.947 315.144 202.172C304.328 201.552 299.76 200.732 298.828 200.4Z" stroke="black" stroke-width="0.5"/>
<circle cx="201.419" cy="81.3054" r="1.10581" stroke="black" stroke-width="0.2"/>
<path d="M76.142 127.585L74.1284 123.692L64.5972 132.821L77.0817 129.062L76.142 127.585Z" fill="#D9D9D9" stroke="black" stroke-width="0.2" stroke-linejoin="round"/>
<path d="M64.5972 132.821L71.8462 122.618L74.3968 123.558L66.745 130.807L76.679 124.229L80.9747 125.437L64.5972 132.821Z" fill="#ABE839" stroke="black" stroke-width="0.2" stroke-linejoin="round"/>
<line x1="163.466" y1="35.0049" x2="167.466" y2="35.0049" stroke="black" stroke-width="0.5"/>
<line x1="165.451" y1="37.0361" x2="165.451" y2="33.0361" stroke="black" stroke-width="0.5"/>
<path d="M256.184 48.8291L257.796 49.7522L257.832 49.7732L257.873 49.7616L259.97 49.1608L258.537 50.8059L258.509 50.8377L258.513 50.8798L258.666 52.7308L257.054 51.8078L257.017 51.7868L256.977 51.7984L254.879 52.3992L256.312 50.7541L256.34 50.7223L256.337 50.6802L256.184 48.8291Z" fill="#C8FC66" stroke="black" stroke-width="0.2"/>
<path d="M217.46 102.912C218.732 104.276 219.961 107.537 214.7 109.674" stroke="black" stroke-width="0.5"/>
<path d="M212.857 113.757C214.145 113.924 216.89 113.812 217.566 112.023" stroke="black" stroke-width="0.5"/>
<path d="M154.19 30.7633L168.853 35.5207C168.956 35.5544 169.057 35.5871 169.155 35.6187C177.748 38.3854 185.829 41.4615 192.096 44.5967C195.23 46.1645 197.904 47.7438 199.96 49.3028C202.021 50.8654 203.439 52.3907 204.091 53.8431C204.194 54.0727 204.223 54.4182 204.174 54.8508C204.126 55.2769 204.006 55.7582 203.84 56.2383C203.507 57.2073 203.009 58.1199 202.608 58.536C199.763 61.4873 195.644 63.0179 189.657 62.9821C183.664 62.9463 175.826 61.3403 165.583 58.0423C165.015 57.8594 161.992 56.7095 158.957 55.5507C158.417 55.3444 157.876 55.1379 157.35 54.9367C154.928 54.0114 152.801 53.1987 152.339 53.0361C142.981 49.7425 136.637 46.4565 132.866 43.2984C129.094 40.1393 127.95 37.1615 128.822 34.4512C128.967 34.0021 129.35 32.986 129.795 31.9923C130.017 31.4959 130.252 31.0093 130.479 30.6042C130.71 30.1917 130.918 29.8884 131.082 29.7368C132.7 28.2409 135.277 27.766 139.093 28.0455C142.898 28.3243 147.862 29.3463 154.19 30.7633Z" fill="#D9D9D9" stroke="black" stroke-width="0.5"/>
<path d="M155.705 27.5133L170.368 32.2707C170.471 32.3044 170.572 32.3371 170.67 32.3687C180.905 35.6642 189.768 39.8684 195.824 43.9955C198.853 46.06 201.167 48.0969 202.601 49.9814C204.04 51.8728 204.556 53.5594 204.107 54.9536C203.652 56.3691 202.431 57.494 200.482 58.277C198.533 59.0602 195.885 59.4883 192.639 59.5228C186.15 59.5919 177.333 58.088 167.098 54.7923C166.53 54.6094 163.506 53.4595 160.471 52.3007C159.931 52.0944 159.391 51.8879 158.864 51.6867C156.443 50.7614 154.316 49.9487 153.854 49.7861C144.496 46.4925 138.152 43.2065 134.381 40.0484C130.608 36.8893 129.464 33.9115 130.337 31.2012C131.087 28.8712 133.5 27.0705 137.734 26.2932C141.96 25.5173 147.942 25.7759 155.705 27.5133Z" fill="white" stroke="black" stroke-width="0.5"/>
<path d="M152.955 39.6003C152.645 38.9752 152.607 38.2977 152.842 37.568C153.077 36.8382 153.503 36.3099 154.119 35.9831C154.736 35.6564 155.39 35.6043 156.082 35.827C156.856 36.0763 157.392 36.5747 157.691 37.3222C157.812 37.6625 157.864 38.0014 157.847 38.3389L156.8 38.0018C156.806 37.8288 156.77 37.6595 156.69 37.4937C156.535 37.1285 156.235 36.8743 155.79 36.7313C155.397 36.6046 155.019 36.6475 154.656 36.86C154.3 37.0744 154.045 37.4228 153.889 37.9051C153.734 38.3874 153.738 38.8195 153.903 39.2016C154.073 39.5856 154.355 39.841 154.748 39.9677C155.205 40.1148 155.61 40.0875 155.962 39.8857C156.117 39.7955 156.249 39.6803 156.357 39.5401L157.356 39.8619C157.17 40.159 156.929 40.407 156.633 40.6061C155.963 41.0347 155.238 41.1233 154.457 40.872C153.766 40.6493 153.265 40.2254 152.955 39.6003ZM157.663 41.7993L159.227 36.9447L160.226 37.2665L159.996 37.9804L160.044 37.9957C160.156 37.8849 160.299 37.7907 160.471 37.713C160.845 37.5532 161.228 37.5366 161.622 37.6633L162.193 37.8472L161.886 38.7991L161.267 38.5998C160.88 38.4752 160.52 38.4958 160.187 38.6615C159.861 38.823 159.635 39.1036 159.506 39.5034L158.663 42.1211L157.663 41.7993ZM162.04 42.5152C161.722 41.8733 161.677 41.197 161.906 40.4863C162.135 39.7755 162.565 39.2556 163.196 38.9266C163.835 38.5932 164.501 38.5379 165.193 38.7606C165.885 38.9833 166.39 39.4156 166.708 40.0575C167.035 40.6951 167.084 41.3692 166.856 42.08L166.748 42.4131L162.798 41.1412C162.745 41.5655 162.819 41.9358 163.018 42.2521C163.217 42.5684 163.498 42.7848 163.86 42.9013C164.304 43.0443 164.695 43.0477 165.033 42.9114C165.182 42.8614 165.323 42.784 165.454 42.6794L166.501 43.0165C166.268 43.2846 166.015 43.4938 165.743 43.6441C165.055 43.997 164.33 44.0508 163.568 43.8056C162.877 43.5829 162.367 43.1527 162.04 42.5152ZM163.106 40.3474L165.962 41.2669C166.007 40.9312 165.941 40.6125 165.765 40.3107C165.596 40.0109 165.308 39.7957 164.902 39.6649C164.559 39.5546 164.221 39.5612 163.887 39.6848C163.555 39.8021 163.295 40.0229 163.106 40.3474ZM167.524 44.3121C167.243 43.7036 167.224 43.0249 167.465 42.2761C167.706 41.5273 168.117 40.9908 168.697 40.6664C169.286 40.3378 169.908 40.2788 170.561 40.4892C170.974 40.622 171.313 40.8642 171.578 41.2156C171.691 41.3642 171.783 41.5234 171.855 41.6935L171.902 41.7088L172.101 41.0901L173.101 41.4119L171.538 46.2665L170.538 45.9447L170.753 45.2783L170.705 45.263C170.567 45.3656 170.396 45.4507 170.192 45.5181C169.768 45.6616 169.35 45.667 168.937 45.5342C168.283 45.3237 167.812 44.9164 167.524 44.3121ZM169.279 41.5365C168.935 41.734 168.679 42.0929 168.512 42.6133C168.344 43.1336 168.342 43.5743 168.506 43.9352C168.67 44.2962 168.974 44.5481 169.419 44.6912C169.837 44.826 170.216 44.7937 170.553 44.5941C170.899 44.3903 171.154 44.0314 171.32 43.5174C171.485 43.0034 171.486 42.5659 171.322 42.2049C171.167 41.8397 170.879 41.5896 170.461 41.4548C170.016 41.3118 169.622 41.339 169.279 41.5365ZM173.605 42.5722L173.896 41.6679L174.467 41.8518L174.804 40.8047L175.804 41.1265L175.467 42.1736L176.942 42.6487L176.651 43.5529L175.175 43.0779L174.195 46.1239L175.718 46.6143L175.427 47.5186L172.904 46.7064L174.176 42.7561L173.605 42.5722ZM176.951 47.3161C176.633 46.6742 176.588 45.9979 176.817 45.2872C177.045 44.5765 177.475 44.0566 178.107 43.7275C178.746 43.3942 179.412 43.3389 180.104 43.5616C180.795 43.7843 181.3 44.2166 181.619 44.8584C181.946 45.496 181.995 46.1702 181.766 46.8809L181.659 47.2141L177.709 45.9422C177.656 46.3665 177.73 46.7368 177.929 47.0531C178.128 47.3694 178.409 47.5858 178.77 47.7022C179.215 47.8453 179.606 47.8486 179.944 47.7123C180.093 47.6623 180.233 47.585 180.365 47.4803L181.412 47.8175C181.179 48.0855 180.926 48.2947 180.653 48.4451C179.965 48.7979 179.241 48.8517 178.479 48.6065C177.788 48.3838 177.278 47.9537 176.951 47.3161ZM178.017 45.1484L180.873 46.0678C180.918 45.7321 180.852 45.4134 180.676 45.1116C180.506 44.8119 180.219 44.5966 179.812 44.4659C179.47 44.3555 179.131 44.3622 178.798 44.4858C178.466 44.603 178.205 44.8239 178.017 45.1484Z" fill="black"/>
<path d="M185.284 115.913L134.402 73.8767C130.677 70.7988 130.152 65.2835 133.23 61.558L139.338 54.1641C141.715 51.287 145.619 50.3029 148.853 52.1009C154.32 55.141 163.383 61.0123 174.584 71.3919C186.018 81.9869 195.864 91.3203 201.807 96.9902C205.112 100.144 205.399 105.304 202.488 108.827L199.832 112.043L197.602 114.741C194.525 118.466 189.009 118.991 185.284 115.913Z" fill="#FF950D" stroke="black" stroke-width="0.5"/>
<path d="M205.238 104.942L200.352 110.856C197.275 114.581 191.759 115.106 188.034 112.028L137.152 69.9917C133.427 66.9138 132.902 61.3985 135.98 57.673L142.088 50.2791C144.465 47.402 148.369 46.4179 151.603 48.2159C157.07 51.256 166.133 57.1273 177.334 67.5069C188.768 78.1018 198.614 87.4353 204.557 93.1052C207.862 96.259 208.149 101.419 205.238 104.942Z" fill="#FFCC3E" stroke="black" stroke-width="0.5"/>
<path d="M158.661 73.0619L163.391 66.3242L164.185 66.9662L162.462 69.4206L162.5 69.4512C162.685 69.3898 162.872 69.3546 163.06 69.3457C163.503 69.322 163.889 69.4426 164.216 69.7075C164.735 70.1273 165 70.7132 165.009 71.4652C165.028 72.2149 164.772 72.9683 164.24 73.7255C163.709 74.4827 163.103 74.9581 162.421 75.1517C161.75 75.343 161.154 75.2287 160.635 74.8089C160.302 74.5399 160.086 74.1786 159.985 73.7252C159.941 73.5183 159.923 73.3128 159.932 73.1088L159.894 73.0782L159.455 73.7039L158.661 73.0619ZM162.318 70.2847C161.923 70.4081 161.543 70.7296 161.178 71.2494C160.813 71.7692 160.628 72.2529 160.622 72.7006C160.625 73.146 160.793 73.5032 161.126 73.7722C161.479 74.0575 161.855 74.1405 162.255 74.0212C162.655 73.9019 163.039 73.5791 163.409 73.053C163.778 72.5268 163.961 72.041 163.958 71.5956C163.954 71.1503 163.776 70.7849 163.423 70.4996C163.09 70.2306 162.722 70.159 162.318 70.2847Z" fill="black"/>
<path d="M164.61 74.7786L166.671 71.8429L167.465 72.4848L165.471 75.3243C165.17 75.7542 165.02 76.1309 165.022 76.4545C165.033 76.7757 165.193 77.0606 165.5 77.3092C165.808 77.5578 166.152 77.6301 166.533 77.526C166.924 77.4195 167.271 77.1513 167.572 76.7213L169.431 74.0744L170.224 74.7163L166.779 79.6252L165.985 78.9833L166.458 78.3095L166.42 78.2789C166.269 78.3584 166.086 78.4113 165.87 78.4378C165.417 78.4743 165.017 78.352 164.669 78.0708C164.19 77.6836 163.941 77.2055 163.922 76.6365C163.908 76.0717 164.137 75.4524 164.61 74.7786Z" fill="black"/>
<path d="M170.216 76.1429L170.858 75.2285L171.312 75.5953L172.055 74.5365L172.849 75.1785L172.106 76.2373L173.278 77.1849L172.636 78.0993L171.464 77.1517L169.301 80.2317L170.511 81.2099L169.869 82.1243L167.866 80.5042L170.67 76.5097L170.216 76.1429Z" fill="black"/>
<path d="M173.081 78.4595L173.723 77.5451L174.177 77.912L174.92 76.8532L175.714 77.4951L174.971 78.5539L176.143 79.5015L175.501 80.4159L174.329 79.4683L172.167 82.5484L173.376 83.5266L172.735 84.441L170.731 82.8209L173.535 78.8264L173.081 78.4595Z" fill="black"/>
<path d="M174.239 84.6612C174.202 83.8573 174.436 83.0961 174.941 82.3774C175.445 81.6587 176.06 81.2104 176.786 81.0325C177.521 80.8522 178.171 80.9903 178.735 81.4468C179.3 81.9033 179.6 82.5335 179.636 83.3374C179.682 84.1389 179.453 84.899 178.948 85.6177C178.444 86.3364 177.824 86.7858 177.089 86.9661C176.364 87.144 175.719 87.0047 175.154 86.5482C174.59 86.0917 174.284 85.4627 174.239 84.6612ZM176.929 82.1289C176.505 82.2488 176.119 82.5558 175.773 83.0499C175.426 83.544 175.255 84.0295 175.26 84.5063C175.269 84.9767 175.448 85.3526 175.796 85.6338C176.144 85.915 176.53 85.9957 176.954 85.8758C177.382 85.7495 177.77 85.4392 178.117 84.9451C178.464 84.4511 178.632 83.9688 178.623 83.4984C178.618 83.0215 178.441 82.6425 178.093 82.3612C177.745 82.08 177.357 82.0025 176.929 82.1289Z" fill="black"/>
<path d="M177.934 88.6454L181.38 83.7365L182.174 84.3784L181.701 85.0522L181.739 85.0828C181.89 85.0034 182.073 84.9504 182.289 84.924C182.742 84.8874 183.142 85.0097 183.49 85.291C183.968 85.6782 184.215 86.1542 184.229 86.7191C184.249 87.288 184.022 87.9094 183.549 88.5831L181.488 91.5189L180.694 90.8769L182.688 88.0375C182.989 87.6075 183.135 87.232 183.123 86.9108C183.121 86.5872 182.966 86.3011 182.659 86.0525C182.351 85.8039 182.002 85.7328 181.611 85.8393C181.23 85.9434 180.888 86.2105 180.587 86.6404L178.728 89.2873L177.934 88.6454Z" fill="black"/>
<path d="M148.935 53.1015C148.446 52.9449 147.88 51.5223 148.47 51.0032C148.957 50.7641 149.161 50.7642 149.687 50.9085C150.038 51.0046 150.21 51.1746 150.49 51.3407C150.683 51.5036 150.923 51.844 150.925 52.0421C150.927 52.3367 150.997 52.6442 150.812 52.9134C150.487 53.3883 149.482 53.4015 148.935 53.1015Z" fill="white"/>
<path d="M152.383 55.4442C152.062 55.117 151.827 54.941 151.602 54.5497C151.405 54.2089 151.706 53.7492 152.002 53.5428C152.438 53.239 153.536 53.7094 153.966 53.8496C154.298 53.9581 154.623 54.0558 154.946 54.1896C155.194 54.2921 155.442 54.4325 155.674 54.5656C156.372 54.9672 157.074 55.3603 157.77 55.7649C158.224 56.0283 158.582 56.3368 158.947 56.7029C159.556 57.3153 160.052 58.0229 160.426 58.7828C160.536 59.0056 160.583 59.2218 160.63 59.4579C160.669 59.6524 160.767 59.8672 160.692 60.0621C160.443 60.7131 159.511 60.4009 159.036 60.1828C158.257 59.8248 157.456 59.5429 156.703 59.1336C156.264 58.895 155.85 58.6361 155.468 58.3192C154.379 57.4171 153.367 56.4468 152.383 55.4442Z" fill="white"/>
<path d="M205.238 105.318L200.352 111.231C197.275 114.957 191.759 115.482 188.034 112.404L137.152 70.3669C133.427 67.289 132.902 61.7738 135.98 58.0482L142.088 50.6544C144.465 47.7772 148.369 46.7931 151.603 48.5911C157.07 51.6312 166.133 57.5026 177.334 67.8821C188.768 78.4771 198.614 87.8105 204.557 93.4805C207.862 96.6343 208.149 101.794 205.238 105.318Z" fill="#FFDE00" stroke="black" stroke-width="0.5"/>
<path d="M158.661 73.4372L163.391 66.6995L164.185 67.3414L162.462 69.7959L162.5 69.8264C162.685 69.765 162.872 69.7299 163.06 69.7209C163.503 69.6972 163.889 69.8178 164.216 70.0827C164.735 70.5025 165 71.0884 165.009 71.8404C165.028 72.5901 164.772 73.3435 164.24 74.1007C163.709 74.8579 163.103 75.3333 162.421 75.5269C161.75 75.7182 161.154 75.6039 160.635 75.1841C160.302 74.9151 160.086 74.5539 159.985 74.1004C159.941 73.8935 159.923 73.6881 159.932 73.484L159.894 73.4535L159.455 74.0791L158.661 73.4372ZM162.318 70.6599C161.923 70.7833 161.543 71.1049 161.178 71.6247C160.813 72.1444 160.628 72.6282 160.622 73.0759C160.625 73.5212 160.793 73.8784 161.126 74.1474C161.479 74.4328 161.855 74.5158 162.255 74.3964C162.655 74.2771 163.039 73.9544 163.409 73.4282C163.778 72.902 163.961 72.4162 163.958 71.9709C163.954 71.5255 163.776 71.1602 163.423 70.8749C163.09 70.6058 162.722 70.5342 162.318 70.6599Z" fill="black"/>
<path d="M164.61 75.1538L166.671 72.2181L167.465 72.8601L165.471 75.6995C165.17 76.1295 165.02 76.5062 165.022 76.8297C165.033 77.1509 165.193 77.4358 165.5 77.6845C165.808 77.9331 166.152 78.0053 166.533 77.9012C166.924 77.7947 167.271 77.5265 167.572 77.0966L169.431 74.4496L170.224 75.0916L166.779 80.0005L165.985 79.3585L166.458 78.6848L166.42 78.6542C166.269 78.7336 166.086 78.7866 165.87 78.813C165.417 78.8496 165.017 78.7272 164.669 78.446C164.19 78.0588 163.941 77.5807 163.922 77.0118C163.908 76.4469 164.137 75.8276 164.61 75.1538Z" fill="black"/>
<path d="M170.216 76.5181L170.858 75.6037L171.312 75.9706L172.055 74.9118L172.849 75.5537L172.106 76.6125L173.278 77.5601L172.636 78.4745L171.464 77.5269L169.301 80.607L170.511 81.5852L169.869 82.4996L167.866 80.8794L170.67 76.885L170.216 76.5181Z" fill="black"/>
<path d="M173.081 78.8348L173.723 77.9204L174.177 78.2872L174.92 77.2284L175.714 77.8704L174.971 78.9292L176.143 79.8768L175.501 80.7912L174.329 79.8436L172.167 82.9236L173.376 83.9018L172.735 84.8162L170.731 83.1961L173.535 79.2016L173.081 78.8348Z" fill="black"/>
<path d="M174.239 85.0364C174.202 84.2326 174.436 83.4713 174.941 82.7526C175.445 82.0339 176.06 81.5856 176.786 81.4077C177.521 81.2275 178.171 81.3656 178.735 81.8221C179.3 82.2786 179.6 82.9087 179.636 83.7126C179.682 84.5141 179.453 85.2742 178.948 85.9929C178.444 86.7116 177.824 87.1611 177.089 87.3413C176.364 87.5192 175.719 87.38 175.154 86.9235C174.59 86.467 174.284 85.838 174.239 85.0364ZM176.929 82.5041C176.505 82.624 176.119 82.931 175.773 83.4251C175.426 83.9192 175.255 84.4047 175.26 84.8816C175.269 85.352 175.448 85.7278 175.796 86.0091C176.144 86.2903 176.53 86.371 176.954 86.251C177.382 86.1247 177.77 85.8145 178.117 85.3204C178.464 84.8263 178.632 84.344 178.623 83.8736C178.618 83.3967 178.441 83.0177 178.093 82.7365C177.745 82.4552 177.357 82.3778 176.929 82.5041Z" fill="black"/>
<path d="M177.934 89.0206L181.38 84.1117L182.174 84.7537L181.701 85.4275L181.739 85.458C181.89 85.3786 182.073 85.3257 182.289 85.2992C182.742 85.2626 183.142 85.385 183.49 85.6662C183.968 86.0534 184.215 86.5294 184.229 87.0943C184.249 87.6633 184.022 88.2846 183.549 88.9584L181.488 91.8941L180.694 91.2522L182.688 88.4127C182.989 87.9828 183.135 87.6072 183.123 87.286C183.121 86.9625 182.966 86.6764 182.659 86.4278C182.351 86.1791 182.002 86.1081 181.611 86.2145C181.23 86.3187 180.888 86.5857 180.587 87.0156L178.728 89.6626L177.934 89.0206Z" fill="black"/>
<path d="M148.935 53.4768C148.446 53.3202 147.88 51.8975 148.47 51.3784C148.957 51.1393 149.161 51.1394 149.687 51.2837C150.038 51.3799 150.21 51.5498 150.49 51.7159C150.683 51.8789 150.923 52.2192 150.925 52.4173C150.927 52.712 150.997 53.0194 150.812 53.2887C150.487 53.7635 149.482 53.7768 148.935 53.4768Z" fill="white"/>
<path d="M152.383 55.8195C152.062 55.4922 151.827 55.3162 151.602 54.925C151.405 54.5842 151.706 54.1245 152.002 53.918C152.438 53.6142 153.536 54.0847 153.966 54.2248C154.298 54.3333 154.623 54.431 154.946 54.5648C155.194 54.6673 155.442 54.8077 155.674 54.9409C156.372 55.3425 157.074 55.7356 157.77 56.1401C158.224 56.4036 158.582 56.7121 158.947 57.0782C159.556 57.6906 160.052 58.3982 160.426 59.158C160.536 59.3809 160.583 59.597 160.63 59.8332C160.669 60.0276 160.767 60.2424 160.692 60.4373C160.443 61.0883 159.511 60.7761 159.036 60.5581C158.257 60.2 157.456 59.9182 156.703 59.5089C156.264 59.2702 155.85 59.0113 155.468 58.6945C154.379 57.7923 153.367 56.822 152.383 55.8195Z" fill="white"/>
<rect x="169.509" y="28.9019" width="3" height="2" rx="1" transform="rotate(19.6723 169.509 28.9019)" fill="white"/>
<rect x="121.479" y="85.6184" width="92.5" height="26.5" rx="13.25" transform="rotate(26.35 121.479 85.6184)" fill="#679B07" stroke="black" stroke-width="0.5"/>
<path d="M181.304 141.476L123.68 112.933C116.703 109.478 113.849 101.021 117.305 94.0443C120.458 87.6772 127.847 84.6599 134.491 87.1613C144.46 90.915 158.658 96.5499 168.871 101.795C177.189 106.066 187.601 112.41 195.267 117.24C201.273 121.025 203.348 128.733 200.194 135.1C196.738 142.077 188.281 144.931 181.304 141.476Z" fill="#ABE839" stroke="black" stroke-width="0.5"/>
<path d="M138.64 108.662L141.747 102.39L142.688 102.856L142.399 103.438L142.444 103.46C142.614 103.388 142.791 103.338 142.976 103.311C143.411 103.243 143.822 103.306 144.211 103.498C144.826 103.803 145.227 104.277 145.415 104.92C145.611 105.561 145.534 106.233 145.185 106.938C144.836 107.643 144.346 108.115 143.715 108.353C143.092 108.587 142.474 108.552 141.858 108.248C141.464 108.052 141.163 107.766 140.956 107.388C140.863 107.215 140.797 107.041 140.757 106.865L140.713 106.843L139.581 109.128L138.64 108.662ZM142.46 104.194C142.097 104.341 141.796 104.657 141.556 105.141C141.316 105.625 141.246 106.059 141.346 106.443C141.455 106.824 141.706 107.112 142.101 107.308C142.519 107.515 142.913 107.546 143.282 107.402C143.651 107.257 143.957 106.94 144.199 106.45C144.442 105.96 144.509 105.525 144.4 105.143C144.291 104.762 144.028 104.468 143.61 104.261C143.215 104.066 142.832 104.043 142.46 104.194ZM145.512 109.243C145.324 108.599 145.405 107.925 145.754 107.22C146.104 106.515 146.589 106.045 147.212 105.811C147.843 105.573 148.466 105.606 149.081 105.911C149.47 106.103 149.769 106.393 149.979 106.78C150.069 106.943 150.137 107.114 150.182 107.293L150.227 107.315L150.515 106.733L151.456 107.199L149.193 111.769L148.252 111.303L148.562 110.676L148.518 110.653C148.366 110.735 148.184 110.793 147.973 110.83C147.532 110.909 147.117 110.853 146.729 110.66C146.114 110.355 145.708 109.883 145.512 109.243ZM147.658 106.757C147.289 106.901 146.983 107.219 146.74 107.709C146.497 108.198 146.431 108.634 146.539 109.015C146.648 109.396 146.912 109.691 147.33 109.898C147.724 110.093 148.103 110.117 148.466 109.969C148.838 109.819 149.144 109.502 149.384 109.018C149.623 108.534 149.689 108.101 149.58 107.72C149.48 107.336 149.233 107.046 148.839 106.851C148.421 106.644 148.027 106.612 147.658 106.757ZM152.115 107.525L153.101 108.014L152.267 112.176L152.76 112.42L155.655 109.278L156.641 109.767L151.652 115.107L150.666 114.619L152.047 113.183L151.106 112.717L152.115 107.525ZM154.903 114.597L157.167 110.027L158.107 110.493L157.797 111.121L157.842 111.143C157.984 111.05 158.145 110.981 158.324 110.935C158.729 110.838 159.135 110.89 159.541 111.092C160.025 111.331 160.345 111.669 160.502 112.103C160.568 112.285 160.6 112.476 160.598 112.675L160.642 112.697C160.803 112.584 160.989 112.501 161.201 112.449C161.665 112.322 162.142 112.38 162.632 112.623C163.164 112.886 163.496 113.259 163.629 113.742C163.771 114.221 163.688 114.772 163.381 115.393L162.027 118.126L161.086 117.66L162.418 114.972C162.787 114.225 162.644 113.689 161.987 113.363C161.67 113.206 161.333 113.196 160.976 113.331C160.627 113.464 160.362 113.715 160.178 114.086L158.935 116.595L157.994 116.129L159.326 113.44C159.696 112.694 159.552 112.157 158.895 111.832C158.578 111.675 158.242 111.664 157.884 111.8C157.536 111.932 157.27 112.184 157.087 112.554L155.844 115.063L154.903 114.597ZM163.79 118.263C163.57 117.581 163.626 116.905 163.957 116.236C164.288 115.567 164.791 115.117 165.463 114.885C166.145 114.649 166.812 114.693 167.463 115.016C168.114 115.338 168.55 115.84 168.77 116.522C168.999 117.201 168.948 117.875 168.617 118.544L168.461 118.858L164.742 117.016C164.628 117.428 164.646 117.805 164.796 118.147C164.946 118.49 165.192 118.745 165.532 118.914C165.95 119.121 166.337 119.182 166.691 119.097C166.846 119.07 166.997 119.014 167.142 118.93L168.128 119.418C167.858 119.649 167.576 119.818 167.285 119.927C166.552 120.174 165.827 120.12 165.111 119.765C164.459 119.442 164.019 118.942 163.79 118.263ZM165.165 116.277L167.853 117.608C167.947 117.283 167.929 116.958 167.8 116.633C167.677 116.312 167.424 116.056 167.041 115.867C166.719 115.707 166.383 115.664 166.035 115.737C165.689 115.803 165.399 115.983 165.165 116.277ZM168.327 121.247L170.591 116.677L171.532 117.143L171.221 117.77L171.266 117.792C171.397 117.708 171.566 117.643 171.775 117.598C172.216 117.519 172.642 117.581 173.055 117.785C173.622 118.066 173.98 118.448 174.128 118.931C174.282 119.416 174.203 119.972 173.893 120.6L172.539 123.333L171.598 122.867L172.907 120.223C173.106 119.823 173.161 119.486 173.073 119.212C172.995 118.935 172.773 118.706 172.409 118.526C172.045 118.345 171.681 118.321 171.318 118.454C170.963 118.583 170.687 118.848 170.489 119.248L169.268 121.713L168.327 121.247ZM175.088 119.964L175.509 119.113L176.047 119.379L176.535 118.393L177.476 118.859L176.988 119.845L178.377 120.533L177.955 121.384L176.566 120.696L175.146 123.564L176.58 124.274L176.158 125.125L173.783 123.949L175.625 120.23L175.088 119.964Z" fill="black"/>
<path d="M132.678 92.0981C132.165 92.0755 131.244 90.8521 131.677 90.196C132.084 89.8371 132.281 89.7836 132.827 89.7844C133.191 89.7849 133.401 89.9037 133.715 89.9901C133.944 90.0966 134.265 90.3619 134.319 90.5526C134.398 90.8362 134.547 91.1145 134.439 91.4228C134.25 91.9666 133.285 92.2436 132.678 92.0981Z" fill="white"/>
<path d="M136.621 93.451C136.225 93.2198 135.952 93.1119 135.631 92.7937C135.352 92.5166 135.522 91.9938 135.753 91.7167C136.094 91.309 137.277 91.474 137.728 91.4963C138.077 91.5136 138.416 91.5224 138.763 91.5665C139.029 91.6002 139.306 91.6703 139.564 91.7379C140.343 91.9417 141.124 92.1363 141.902 92.3434C142.409 92.4783 142.837 92.6815 143.284 92.9389C144.033 93.3695 144.698 93.9218 145.259 94.5563C145.424 94.7424 145.526 94.9387 145.633 95.154C145.722 95.3314 145.873 95.513 145.852 95.7206C145.783 96.4141 144.801 96.3582 144.286 96.2727C143.44 96.1324 142.593 96.0711 141.759 95.8742C141.273 95.7594 140.805 95.6185 140.353 95.4134C139.066 94.8293 137.834 94.1594 136.621 93.451Z" fill="white"/>
<path d="M170.028 144.689L161.264 145.454C160.399 145.529 159.674 144.809 159.744 143.944C159.811 143.126 160.561 142.54 161.37 142.673L170.051 144.102C170.203 144.127 170.31 144.264 170.298 144.418C170.286 144.562 170.172 144.676 170.028 144.689Z" fill="#ABE839" stroke="black" stroke-width="0.5"/>
<path d="M175.021 148.166L160.375 154.115C159.334 154.538 158.157 153.953 157.866 152.867C157.587 151.827 158.243 150.767 159.298 150.552L174.787 147.393C174.998 147.35 175.205 147.478 175.26 147.685C175.313 147.883 175.211 148.089 175.021 148.166Z" fill="#ABE839" stroke="black" stroke-width="0.5"/>
<path d="M95.8674 118.763C98.7168 116.945 103.437 113.039 99.5235 111.963C97.4597 111.791 96.5578 114.793 97.1179 115.216C97.566 115.555 101.848 111.662 103.932 109.674" stroke="black" stroke-width="0.2"/>
<path d="M135.038 84.1878L136.589 81.5008L138.14 84.1878H135.038Z" stroke="black" stroke-width="0.2"/>
<path d="M209.224 62.4764C207.331 62.4739 203.12 63.4452 201.419 67.3503" stroke="black" stroke-width="0.2"/>
<circle r="1.14163" transform="matrix(-0.978764 -0.204991 -0.204991 0.978764 216.541 44.652)" fill="#ABE839" stroke="black" stroke-width="0.5"/>
<circle r="1.14163" transform="matrix(-0.978764 -0.204991 -0.204991 0.978764 212.202 43.7434)" fill="#ABE839" stroke="black" stroke-width="0.5"/>
<circle r="1.14163" transform="matrix(-0.978764 -0.204991 -0.204991 0.978764 208.15 42.8946)" fill="#ABE839" stroke="black" stroke-width="0.5"/>
<path d="M220.43 45.8442C220.038 47.3398 218.773 48.4863 216.987 49.1084C215.202 49.7299 212.924 49.8154 210.581 49.202C210.467 49.1722 210.316 49.1813 210.177 49.1971C210.025 49.2144 209.843 49.2461 209.643 49.2859C209.275 49.3595 208.831 49.4646 208.387 49.5695C208.351 49.5781 208.315 49.5867 208.278 49.5953C207.796 49.7093 207.323 49.82 206.941 49.891C206.75 49.9266 206.588 49.951 206.463 49.9614C206.4 49.9666 206.351 49.9679 206.315 49.9663C206.294 49.9654 206.282 49.9637 206.276 49.9627C206.274 49.9441 206.275 49.9045 206.292 49.8352C206.336 49.6644 206.445 49.4412 206.577 49.1806C206.582 49.1693 206.588 49.158 206.594 49.1466C206.713 48.9107 206.846 48.6468 206.913 48.4181C206.949 48.298 206.974 48.1623 206.956 48.0311C206.937 47.8873 206.864 47.7509 206.719 47.6641C205.336 46.838 204.421 45.8456 203.925 44.7859C203.429 43.7281 203.343 42.5883 203.641 41.4494C204.03 39.9626 205.289 38.9283 207.078 38.4169C208.866 37.9056 211.152 37.9309 213.504 38.5466C215.856 39.1621 217.796 40.2432 219.042 41.5465C220.285 42.8478 220.821 44.3507 220.43 45.8442Z" stroke="black" stroke-width="0.5"/>
</g>
<defs>
<clipPath id="clip0_1415_1114">
<rect width="287" height="165" fill="white" transform="translate(0.078125 0.0112305)"/>
</clipPath>
</defs>
</svg>
